<svg xmlns="http://www.w3.org/2000/svg" width="143" height="30" viewBox="0 0 143 30">
  <g fill-rule="evenodd" transform="translate(0 -1)" fill="white">
      <path d="M18.1183288,26.9484442 C20.4189128,23.5952608 20.6740248,17.0314594 16.7306568,11.8249264 C18.0576968,15.1723145 17.7522488,20.1586245 15.9367208,24.3799497 L18.1183288,26.9484442 Z"/>
      <g transform="translate(0 .862)">
        <path d="M32.187584,26.9938796 C34.18272,21.5045341 34.952632,10.3264835 24.565112,0.297069098 C29.161704,7.50994853 31.190016,16.7581512 27.54752,26.811906 C26.767312,26.8037925 24.908312,26.8397236 23.684232,26.9023133 C26.70668,22.9070063 27.769456,15.2165909 21.110232,4.86031935 C22.858264,10.9906294 23.628176,16.3768178 21.057608,23.2558857 L23.627032,26.9057905 C15.692248,27.3161005 5.254392,28.946909 0,29.7617337 L0.776776,30.1361127 C4.317456,29.645827 24.420968,26.7493163 36.11608,29.0071805 L38.067744,28.0335635 C36.784176,27.5676182 34.72612,27.1932393 32.187584,26.9938796"/>
      </g>
      <path d="M91.4968912 10.5776535L90.5691072 10.5776535 90.5691072 24.3033354 78.9849632 10.5776535 76.2668192 10.5776535C76.6695072 10.7700588 77.2563792 11.3264113 77.2563792 12.0705329L77.2563792 27.9497629 78.1853072 27.9497629 78.1853072 12.7230881 90.8905712 27.9497629 91.4968912 27.9497629 91.4968912 10.5776535zM125.544276 10.5776535L125.544276 24.3033354 113.960132 10.5776535 111.240844 10.5776535C111.642388 10.7700588 112.22926 11.3264113 112.22926 12.0705329L112.22926 27.9497629 113.158188 27.9497629 113.158188 12.7230881 125.863452 27.9497629 126.470916 27.9497629 126.470916 11.5837244C127.539412 11.4689767 130.13286 11.2765714 133.028324 11.2765714L133.028324 27.9497629 135.173324 27.9497629 135.173324 11.2765714C139.327188 11.2765714 142.329044 11.6382006 142.329044 11.6382006L142.683684 10.5776535 125.544276 10.5776535zM66.1199968 10.3699485C60.2627168 10.3699485 57.4084368 14.3513467 57.4084368 19.2634764 57.4084368 24.1756061 60.2364048 28.1570043 66.1199968 28.1570043 72.0035888 28.1570043 74.8315568 24.1756061 74.8315568 19.2634764 74.8315568 14.3513467 71.9772768 10.3699485 66.1199968 10.3699485M66.2652848 27.4812677C61.8906288 27.4812677 59.7227488 23.8012272 59.6426688 19.2634764 59.5625888 14.7257256 61.5851808 11.0468442 65.9747088 11.0468442 70.3665248 11.0468442 72.5161008 14.7257256 72.5961808 19.2634764 72.6751168 23.8012272 70.6376528 27.4812677 66.2652848 27.4812677M41.9171896 10.5776535C42.3187336 10.7700588 42.9056056 11.3264113 42.9056056 12.0705329L42.9056056 27.9497629 45.0517496 27.9497629 45.0517496 11.4504316C45.9417816 11.3217751 47.7229896 11.2197771 48.9344856 11.285844 50.0075576 11.3437974 51.3208696 11.6579048 52.1605656 12.2617791 53.1787256 12.993151 53.7461496 14.0397893 53.7793256 15.4758744 53.9131736 21.394075 48.1016536 21.0648997 45.7267096 20.369459L45.7267096 21.2596231C47.6394776 21.5563445 51.8848616 21.8774063 54.5858456 19.2868896 55.5959976 18.3190679 56.0787656 16.8134387 55.9861016 15.3750355 55.8671256 13.5344357 54.7208376 11.8120608 51.7269896 10.9810091 50.0842056 10.5243364 48.3201576 10.5776535 45.8113656 10.5776535L41.9171896 10.5776535zM108.406584 27.9501106L110.797544 27.9501106 101.85032 10.5780012 100.834448 10.5780012 92.908816 27.9501106 93.931552 27.9501106 96.743504 21.7815514 105.17364 21.7815514 108.406584 27.9501106zM97.124456 20.9412272L100.670856 13.1604045 104.741208 20.9412272 97.124456 20.9412272z"/>
    </g>
</svg>
